%TF.GenerationSoftware,KiCad,Pcbnew,9.0.4*%
%TF.CreationDate,2025-11-15T14:25:17+05:30*%
%TF.ProjectId,High Speed Ethernet Interface,48696768-2053-4706-9565-642045746865,rev?*%
%TF.SameCoordinates,Original*%
%TF.FileFunction,Plated,1,6,PTH,Mixed*%
%TF.FilePolarity,Positive*%
%FSLAX46Y46*%
G04 Gerber Fmt 4.6, Leading zero omitted, Abs format (unit mm)*
G04 Created by KiCad (PCBNEW 9.0.4) date 2025-11-15 14:25:17*
%MOMM*%
%LPD*%
G01*
G04 APERTURE LIST*
%TA.AperFunction,ComponentDrill*%
%ADD10C,0.200000*%
%TD*%
%TA.AperFunction,ViaDrill*%
%ADD11C,0.203403*%
%TD*%
G04 aperture for slot hole*
%TA.AperFunction,ComponentDrill*%
%ADD12C,0.600000*%
%TD*%
%TA.AperFunction,ComponentDrill*%
%ADD13C,0.650000*%
%TD*%
%TA.AperFunction,ComponentDrill*%
%ADD14C,0.900000*%
%TD*%
%TA.AperFunction,ComponentDrill*%
%ADD15C,1.020000*%
%TD*%
%TA.AperFunction,ComponentDrill*%
%ADD16C,1.600000*%
%TD*%
%TA.AperFunction,ComponentDrill*%
%ADD17C,3.200000*%
%TD*%
G04 APERTURE END LIST*
D10*
%TO.C,U3*%
X133025000Y-95000000D03*
X133600000Y-94050000D03*
X133600000Y-95950000D03*
X134175000Y-95000000D03*
%TD*%
D11*
X100792128Y-62240403D03*
X101846446Y-84049352D03*
X102082032Y-50292128D03*
X102252973Y-90245031D03*
X103690997Y-72034158D03*
X105755397Y-88664003D03*
X105917968Y-98707872D03*
X106336808Y-56437335D03*
X106733791Y-64912059D03*
X107034245Y-86437190D03*
X107041737Y-63296068D03*
X108516673Y-80172183D03*
X108520215Y-50292128D03*
X109372330Y-88671155D03*
X109461719Y-84355517D03*
X110895634Y-83091777D03*
X111379379Y-90086603D03*
X112165066Y-86516551D03*
X112169782Y-84180728D03*
X113227777Y-66185699D03*
X113277051Y-54808986D03*
X113763301Y-57850899D03*
X113868115Y-73391726D03*
X114040969Y-75153147D03*
X114800165Y-83124254D03*
X115594165Y-73416009D03*
X115965029Y-72678138D03*
X115987599Y-83705936D03*
X116470451Y-77450427D03*
X116557456Y-57614001D03*
X116640556Y-98707872D03*
X117406237Y-96554208D03*
X117453885Y-80236603D03*
X117793909Y-50292128D03*
X118234371Y-94950001D03*
X118574103Y-90186546D03*
X118588850Y-74842581D03*
X119005415Y-69267496D03*
X119359123Y-59758342D03*
X119658098Y-79780840D03*
X119767588Y-81750447D03*
X120034722Y-76641971D03*
X120602276Y-95183190D03*
X120620168Y-65148932D03*
X120719542Y-78127259D03*
X120981685Y-84706087D03*
X121248534Y-73935618D03*
X121261322Y-81356735D03*
X121488743Y-84166618D03*
X121604125Y-88109193D03*
X122744329Y-95322605D03*
X122996872Y-81697426D03*
X123800803Y-94748104D03*
X123803496Y-72935140D03*
X123853889Y-63770339D03*
X124564064Y-88280288D03*
X124597884Y-76127533D03*
X124598568Y-76942896D03*
X124598568Y-80942896D03*
X124601317Y-77736691D03*
X124619257Y-83274356D03*
X124629247Y-79313922D03*
X125118498Y-68753703D03*
X125162531Y-64961862D03*
X125345294Y-90168346D03*
X125373391Y-78468623D03*
X125392197Y-79336315D03*
X125392197Y-82536315D03*
X125752780Y-54669560D03*
X126186632Y-86094206D03*
X126196652Y-80123517D03*
X126202335Y-67627543D03*
X126827343Y-71426100D03*
X127057203Y-75289935D03*
X127138877Y-60391784D03*
X127177177Y-68364733D03*
X127460080Y-77219400D03*
X127561793Y-66170413D03*
X127748639Y-80901401D03*
X127769074Y-63666245D03*
X127792197Y-73736315D03*
X127797207Y-70236265D03*
X127804699Y-75327557D03*
X127888166Y-84857439D03*
X128243497Y-87944302D03*
X128270026Y-89861300D03*
X128424326Y-78806973D03*
X128440975Y-77699939D03*
X128580625Y-66541277D03*
X128596652Y-80123517D03*
X128630376Y-75325768D03*
X129192713Y-68481295D03*
X129388497Y-78477651D03*
X129397572Y-76907885D03*
X129403002Y-76049496D03*
X130209877Y-79285478D03*
X130303506Y-67689373D03*
X130571847Y-91477421D03*
X131125726Y-96560185D03*
X131129050Y-86890392D03*
X131587006Y-90248031D03*
X132495461Y-72035874D03*
X132510420Y-92351117D03*
X132973920Y-86236774D03*
X133263315Y-66497811D03*
X133278135Y-57187707D03*
X133443068Y-72847177D03*
X133455884Y-92861680D03*
X133546389Y-90521380D03*
X133619062Y-64638696D03*
X133665537Y-61433313D03*
X133729421Y-81319094D03*
X133998133Y-72308627D03*
X134062445Y-69165591D03*
X134644332Y-67690162D03*
X134832932Y-83817242D03*
X134993542Y-93510367D03*
X135164800Y-64761139D03*
X135344977Y-51399514D03*
X135517690Y-62983710D03*
X135751163Y-93727195D03*
X135882097Y-90405406D03*
X136621088Y-72042154D03*
X136695872Y-87537433D03*
X136817410Y-89041031D03*
X136868562Y-91740512D03*
X137460158Y-81399559D03*
X137678696Y-84855620D03*
X137828187Y-56319180D03*
X138308091Y-63001547D03*
X138407322Y-82913572D03*
X138577280Y-73279518D03*
X138603993Y-69846535D03*
X138617934Y-74400947D03*
X138664033Y-88215907D03*
X138710746Y-77015802D03*
X138771998Y-86795281D03*
X139203648Y-61095878D03*
X139396817Y-63297884D03*
X139456913Y-83336637D03*
X139637930Y-68196101D03*
X139841821Y-70253425D03*
X139970217Y-84851974D03*
X139990881Y-81535158D03*
X140070152Y-78204485D03*
X140512102Y-57751303D03*
X140660746Y-78865346D03*
X140866631Y-61267344D03*
X140876209Y-67649077D03*
X141133348Y-82255278D03*
X141239836Y-91328388D03*
X141426781Y-77047400D03*
X141578843Y-83669736D03*
X141761447Y-95970411D03*
X141845239Y-92208611D03*
X142321104Y-97006781D03*
X142579296Y-78971224D03*
X142847686Y-63088459D03*
X142936631Y-64652335D03*
X142944900Y-63782710D03*
X143086377Y-94352795D03*
X143570858Y-69276881D03*
X143762249Y-51081181D03*
X143826753Y-73261351D03*
X143966595Y-80617174D03*
X144147618Y-86120584D03*
X144225200Y-87688791D03*
X144237855Y-96737038D03*
X144644416Y-86931546D03*
X144674682Y-77463904D03*
X144706753Y-76321205D03*
X144731460Y-98707872D03*
X144814721Y-75319081D03*
X144966960Y-85067103D03*
X145009848Y-93445531D03*
X145244682Y-61762000D03*
X145701113Y-76261116D03*
X145727757Y-64026722D03*
X146550863Y-70668761D03*
X146676362Y-73011642D03*
X146687870Y-80430917D03*
X146899904Y-83822318D03*
X147028141Y-74516726D03*
X147144884Y-82850915D03*
X147169898Y-87155433D03*
X147589937Y-72619310D03*
X147609575Y-75586944D03*
X147689791Y-60708125D03*
X148076819Y-59550050D03*
X148142986Y-82641944D03*
X148233889Y-56097260D03*
X148556231Y-70615308D03*
X148722996Y-66436930D03*
X148957120Y-67940805D03*
X149193784Y-79316790D03*
X149276623Y-94225526D03*
X149415817Y-83350554D03*
X149481021Y-53099723D03*
X149586884Y-60838431D03*
X149651636Y-76270544D03*
X149872473Y-68121398D03*
X149873394Y-70606207D03*
X150283162Y-60171055D03*
X150903983Y-83255855D03*
X151794833Y-77045276D03*
X151820320Y-75753653D03*
X152290294Y-82025497D03*
X152391884Y-76664368D03*
X152766200Y-66899155D03*
X153316023Y-76935863D03*
X153650668Y-62378628D03*
X153792025Y-89707284D03*
X153911581Y-70544823D03*
X154001791Y-57851196D03*
X154017421Y-59486267D03*
X154053385Y-83384974D03*
X154303806Y-69266065D03*
X154404214Y-66196936D03*
X154469164Y-50292128D03*
X154817487Y-73264017D03*
X155565611Y-76072905D03*
X156569863Y-64531310D03*
X157198059Y-61433110D03*
X157710564Y-56383457D03*
X158744331Y-72290231D03*
X158756099Y-62631886D03*
X159090362Y-79771277D03*
X159302186Y-98707872D03*
X159601807Y-63317918D03*
X159666282Y-92313783D03*
X159687791Y-58683927D03*
X159860136Y-63844609D03*
X161379927Y-58487197D03*
X162430033Y-52443526D03*
X162966771Y-66213582D03*
X165689987Y-98707872D03*
X166524165Y-89845712D03*
X166553568Y-72242206D03*
X166848701Y-60919254D03*
X168215411Y-79876157D03*
X168530771Y-65779082D03*
X169192803Y-62941743D03*
X172297474Y-94987710D03*
X174082032Y-50292128D03*
X175024914Y-83897620D03*
X177136274Y-75040822D03*
X177374086Y-65431456D03*
X179207872Y-59091782D03*
X179207872Y-93582032D03*
D12*
%TO.C,J1*%
X104330000Y-66955000D02*
X104930000Y-66955000D01*
X104330000Y-75595000D02*
X104930000Y-75595000D01*
X108260000Y-66955000D02*
X109360000Y-66955000D01*
X108260000Y-75595000D02*
X109360000Y-75595000D01*
D13*
%TO.C,J2*%
X119000000Y-51500000D03*
X119000000Y-52770000D03*
X120270000Y-51500000D03*
X120270000Y-52770000D03*
X121540000Y-51500000D03*
X121540000Y-52770000D03*
X122810000Y-51500000D03*
X122810000Y-52770000D03*
X124080000Y-51500000D03*
X124080000Y-52770000D03*
D14*
%TO.C,J3*%
X163650000Y-67460000D03*
X164920000Y-70000000D03*
X166190000Y-67460000D03*
X167460000Y-70000000D03*
X168730000Y-67460000D03*
X170000000Y-70000000D03*
X171270000Y-67460000D03*
X172540000Y-70000000D03*
X173810000Y-67460000D03*
X175080000Y-70000000D03*
D15*
X162580000Y-78890000D03*
X162580000Y-80920000D03*
X176150000Y-78890000D03*
X176150000Y-80920000D03*
D16*
X161615000Y-73300000D03*
X177115000Y-73300000D03*
D17*
%TO.C,H1*%
X104000000Y-53500000D03*
%TO.C,H3*%
X104000000Y-95500000D03*
%TO.C,H2*%
X176000000Y-53500000D03*
%TO.C,H4*%
X176000000Y-95500000D03*
M02*
