%TF.GenerationSoftware,KiCad,Pcbnew,9.0.4*%
%TF.CreationDate,2025-11-15T14:23:55+05:30*%
%TF.ProjectId,High Speed Ethernet Interface,48696768-2053-4706-9565-642045746865,rev?*%
%TF.SameCoordinates,Original*%
%TF.FileFunction,Paste,Top*%
%TF.FilePolarity,Positive*%
%FSLAX46Y46*%
G04 Gerber Fmt 4.6, Leading zero omitted, Abs format (unit mm)*
G04 Created by KiCad (PCBNEW 9.0.4) date 2025-11-15 14:23:55*
%MOMM*%
%LPD*%
G01*
G04 APERTURE LIST*
G04 Aperture macros list*
%AMRoundRect*
0 Rectangle with rounded corners*
0 $1 Rounding radius*
0 $2 $3 $4 $5 $6 $7 $8 $9 X,Y pos of 4 corners*
0 Add a 4 corners polygon primitive as box body*
4,1,4,$2,$3,$4,$5,$6,$7,$8,$9,$2,$3,0*
0 Add four circle primitives for the rounded corners*
1,1,$1+$1,$2,$3*
1,1,$1+$1,$4,$5*
1,1,$1+$1,$6,$7*
1,1,$1+$1,$8,$9*
0 Add four rect primitives between the rounded corners*
20,1,$1+$1,$2,$3,$4,$5,0*
20,1,$1+$1,$4,$5,$6,$7,0*
20,1,$1+$1,$6,$7,$8,$9,0*
20,1,$1+$1,$8,$9,$2,$3,0*%
G04 Aperture macros list end*
%ADD10C,0.010000*%
%ADD11RoundRect,0.375000X0.625000X0.375000X-0.625000X0.375000X-0.625000X-0.375000X0.625000X-0.375000X0*%
%ADD12RoundRect,0.500000X0.500000X1.400000X-0.500000X1.400000X-0.500000X-1.400000X0.500000X-1.400000X0*%
%ADD13RoundRect,0.250000X0.475000X-0.250000X0.475000X0.250000X-0.475000X0.250000X-0.475000X-0.250000X0*%
%ADD14RoundRect,0.250000X0.325000X0.650000X-0.325000X0.650000X-0.325000X-0.650000X0.325000X-0.650000X0*%
%ADD15RoundRect,0.250000X-0.250000X-0.475000X0.250000X-0.475000X0.250000X0.475000X-0.250000X0.475000X0*%
%ADD16RoundRect,0.250000X0.650000X-0.325000X0.650000X0.325000X-0.650000X0.325000X-0.650000X-0.325000X0*%
%ADD17RoundRect,0.250000X0.450000X-0.262500X0.450000X0.262500X-0.450000X0.262500X-0.450000X-0.262500X0*%
%ADD18RoundRect,0.250000X0.250000X0.475000X-0.250000X0.475000X-0.250000X-0.475000X0.250000X-0.475000X0*%
%ADD19RoundRect,0.250000X0.262500X0.450000X-0.262500X0.450000X-0.262500X-0.450000X0.262500X-0.450000X0*%
%ADD20RoundRect,0.250000X-0.262500X-0.450000X0.262500X-0.450000X0.262500X0.450000X-0.262500X0.450000X0*%
%ADD21R,1.450000X0.600000*%
%ADD22R,1.450000X0.300000*%
%ADD23RoundRect,0.250000X-0.475000X0.250000X-0.475000X-0.250000X0.475000X-0.250000X0.475000X0.250000X0*%
%ADD24C,0.370000*%
%ADD25RoundRect,0.250000X-0.450000X-0.350000X0.450000X-0.350000X0.450000X0.350000X-0.450000X0.350000X0*%
%ADD26RoundRect,0.375000X-0.625000X-0.375000X0.625000X-0.375000X0.625000X0.375000X-0.625000X0.375000X0*%
%ADD27RoundRect,0.500000X-0.500000X-1.400000X0.500000X-1.400000X0.500000X1.400000X-0.500000X1.400000X0*%
%ADD28RoundRect,0.250000X-0.650000X0.325000X-0.650000X-0.325000X0.650000X-0.325000X0.650000X0.325000X0*%
%ADD29RoundRect,0.250000X-0.325000X-0.650000X0.325000X-0.650000X0.325000X0.650000X-0.325000X0.650000X0*%
%ADD30RoundRect,0.250000X-0.450000X0.262500X-0.450000X-0.262500X0.450000X-0.262500X0.450000X0.262500X0*%
%ADD31RoundRect,0.030000X-0.270000X-0.090000X0.270000X-0.090000X0.270000X0.090000X-0.270000X0.090000X0*%
%ADD32R,1.475000X0.300000*%
%ADD33R,0.300000X1.475000*%
%ADD34R,4.440000X4.440000*%
%ADD35RoundRect,0.218750X0.381250X-0.218750X0.381250X0.218750X-0.381250X0.218750X-0.381250X-0.218750X0*%
%ADD36RoundRect,0.150000X-0.512500X-0.150000X0.512500X-0.150000X0.512500X0.150000X-0.512500X0.150000X0*%
G04 APERTURE END LIST*
D10*
%TO.C,U3*%
X134350000Y-94900000D02*
X132850000Y-94900000D01*
X132850000Y-93840000D01*
X134350000Y-93840000D01*
X134350000Y-94900000D01*
G36*
X134350000Y-94900000D02*
G01*
X132850000Y-94900000D01*
X132850000Y-93840000D01*
X134350000Y-93840000D01*
X134350000Y-94900000D01*
G37*
X134350000Y-96160000D02*
X132850000Y-96160000D01*
X132850000Y-95100000D01*
X134350000Y-95100000D01*
X134350000Y-96160000D01*
G36*
X134350000Y-96160000D02*
G01*
X132850000Y-96160000D01*
X132850000Y-95100000D01*
X134350000Y-95100000D01*
X134350000Y-96160000D01*
G37*
X133475000Y-93640000D02*
X133225000Y-93640000D01*
X133225000Y-93300000D01*
X133475000Y-93300000D01*
X133475000Y-93640000D01*
G36*
X133475000Y-93640000D02*
G01*
X133225000Y-93640000D01*
X133225000Y-93300000D01*
X133475000Y-93300000D01*
X133475000Y-93640000D01*
G37*
X133475000Y-96700000D02*
X133225000Y-96700000D01*
X133225000Y-96360000D01*
X133475000Y-96360000D01*
X133475000Y-96700000D01*
G36*
X133475000Y-96700000D02*
G01*
X133225000Y-96700000D01*
X133225000Y-96360000D01*
X133475000Y-96360000D01*
X133475000Y-96700000D01*
G37*
X133975000Y-93640000D02*
X133725000Y-93640000D01*
X133725000Y-93300000D01*
X133975000Y-93300000D01*
X133975000Y-93640000D01*
G36*
X133975000Y-93640000D02*
G01*
X133725000Y-93640000D01*
X133725000Y-93300000D01*
X133975000Y-93300000D01*
X133975000Y-93640000D01*
G37*
X133975000Y-96700000D02*
X133725000Y-96700000D01*
X133725000Y-96360000D01*
X133975000Y-96360000D01*
X133975000Y-96700000D01*
G36*
X133975000Y-96700000D02*
G01*
X133725000Y-96700000D01*
X133725000Y-96360000D01*
X133975000Y-96360000D01*
X133975000Y-96700000D01*
G37*
%TD*%
D11*
%TO.C,U1*%
X110800000Y-88800000D03*
X110800000Y-86500000D03*
D12*
X104500000Y-86500000D03*
D11*
X110800000Y-84200000D03*
%TD*%
D13*
%TO.C,C13*%
X128868700Y-65548800D03*
X128868700Y-63648800D03*
%TD*%
D14*
%TO.C,C1*%
X148538700Y-72961300D03*
X145588700Y-72961300D03*
%TD*%
D15*
%TO.C,C33*%
X141451200Y-88131300D03*
X143351200Y-88131300D03*
%TD*%
D16*
%TO.C,C5*%
X138726200Y-81411300D03*
X138726200Y-78461300D03*
%TD*%
D15*
%TO.C,C37*%
X138951200Y-96256300D03*
X140851200Y-96256300D03*
%TD*%
D17*
%TO.C,R3*%
X125088700Y-65843800D03*
X125088700Y-64018800D03*
%TD*%
D13*
%TO.C,C8*%
X131368700Y-68048800D03*
X131368700Y-66148800D03*
%TD*%
D18*
%TO.C,C42*%
X141163700Y-60006300D03*
X139263700Y-60006300D03*
%TD*%
D19*
%TO.C,R5*%
X161418700Y-59723800D03*
X159593700Y-59723800D03*
%TD*%
D13*
%TO.C,C24*%
X125118700Y-69611300D03*
X125118700Y-67711300D03*
%TD*%
D16*
%TO.C,C27*%
X136538700Y-76098800D03*
X136538700Y-73148800D03*
%TD*%
D18*
%TO.C,C40*%
X150538700Y-80943800D03*
X148638700Y-80943800D03*
%TD*%
D20*
%TO.C,R4*%
X116781200Y-73786300D03*
X118606200Y-73786300D03*
%TD*%
D21*
%TO.C,J1*%
X109725000Y-68025000D03*
X109725000Y-68825000D03*
D22*
X109725000Y-70025000D03*
X109725000Y-71025000D03*
X109725000Y-71525000D03*
X109725000Y-72525000D03*
D21*
X109725000Y-73725000D03*
X109725000Y-74525000D03*
X109725000Y-74525000D03*
X109725000Y-73725000D03*
D22*
X109725000Y-73025000D03*
X109725000Y-72025000D03*
X109725000Y-70525000D03*
X109725000Y-69525000D03*
D21*
X109725000Y-68825000D03*
X109725000Y-68025000D03*
%TD*%
D13*
%TO.C,C21*%
X146056200Y-87111300D03*
X146056200Y-85211300D03*
%TD*%
%TO.C,C50*%
X151993700Y-85236300D03*
X151993700Y-83336300D03*
%TD*%
D15*
%TO.C,C16*%
X130201200Y-87193800D03*
X132101200Y-87193800D03*
%TD*%
D13*
%TO.C,C18*%
X118556200Y-82111300D03*
X118556200Y-80211300D03*
%TD*%
D23*
%TO.C,C14*%
X137618700Y-63961300D03*
X137618700Y-65861300D03*
%TD*%
D24*
%TO.C,IC2*%
X121800000Y-72500000D03*
X122600000Y-72500000D03*
X123400000Y-72500000D03*
X124200000Y-72500000D03*
X125000000Y-72500000D03*
X125800000Y-72500000D03*
X126600000Y-72500000D03*
X127400000Y-72500000D03*
X128200000Y-72500000D03*
X129000000Y-72500000D03*
X129800000Y-72500000D03*
X130600000Y-72500000D03*
X131400000Y-72500000D03*
X132200000Y-72500000D03*
X133000000Y-72500000D03*
X121800000Y-73300000D03*
X122600000Y-73300000D03*
X123400000Y-73300000D03*
X124200000Y-73300000D03*
X125000000Y-73300000D03*
X125800000Y-73300000D03*
X126600000Y-73300000D03*
X127400000Y-73300000D03*
X128200000Y-73300000D03*
X129000000Y-73300000D03*
X129800000Y-73300000D03*
X130600000Y-73300000D03*
X131400000Y-73300000D03*
X132200000Y-73300000D03*
X133000000Y-73300000D03*
X121800000Y-74100000D03*
X122600000Y-74100000D03*
X123400000Y-74100000D03*
X124200000Y-74100000D03*
X125000000Y-74100000D03*
X125800000Y-74100000D03*
X126600000Y-74100000D03*
X127400000Y-74100000D03*
X128200000Y-74100000D03*
X129000000Y-74100000D03*
X129800000Y-74100000D03*
X130600000Y-74100000D03*
X131400000Y-74100000D03*
X132200000Y-74100000D03*
X133000000Y-74100000D03*
X121800000Y-74900000D03*
X122600000Y-74900000D03*
X123400000Y-74900000D03*
X124200000Y-74900000D03*
X125000000Y-74900000D03*
X125800000Y-74900000D03*
X126600000Y-74900000D03*
X127400000Y-74900000D03*
X128200000Y-74900000D03*
X129000000Y-74900000D03*
X129800000Y-74900000D03*
X130600000Y-74900000D03*
X131400000Y-74900000D03*
X132200000Y-74900000D03*
X133000000Y-74900000D03*
X121800000Y-75700000D03*
X122600000Y-75700000D03*
X123400000Y-75700000D03*
X124200000Y-75700000D03*
X125000000Y-75700000D03*
X125800000Y-75700000D03*
X126600000Y-75700000D03*
X127400000Y-75700000D03*
X128200000Y-75700000D03*
X129000000Y-75700000D03*
X129800000Y-75700000D03*
X130600000Y-75700000D03*
X131400000Y-75700000D03*
X132200000Y-75700000D03*
X133000000Y-75700000D03*
X121800000Y-76500000D03*
X122600000Y-76500000D03*
X123400000Y-76500000D03*
X124200000Y-76500000D03*
X125000000Y-76500000D03*
X125800000Y-76500000D03*
X126600000Y-76500000D03*
X127400000Y-76500000D03*
X128200000Y-76500000D03*
X129000000Y-76500000D03*
X129800000Y-76500000D03*
X130600000Y-76500000D03*
X131400000Y-76500000D03*
X132200000Y-76500000D03*
X133000000Y-76500000D03*
X121800000Y-77300000D03*
X122600000Y-77300000D03*
X123400000Y-77300000D03*
X124200000Y-77300000D03*
X125000000Y-77300000D03*
X125800000Y-77300000D03*
X129000000Y-77300000D03*
X129800000Y-77300000D03*
X130600000Y-77300000D03*
X131400000Y-77300000D03*
X132200000Y-77300000D03*
X133000000Y-77300000D03*
X121800000Y-78100000D03*
X122600000Y-78100000D03*
X123400000Y-78100000D03*
X124200000Y-78100000D03*
X125000000Y-78100000D03*
X125800000Y-78100000D03*
X129000000Y-78100000D03*
X129800000Y-78100000D03*
X130600000Y-78100000D03*
X131400000Y-78100000D03*
X132200000Y-78100000D03*
X133000000Y-78100000D03*
X121800000Y-78900000D03*
X122600000Y-78900000D03*
X123400000Y-78900000D03*
X124200000Y-78900000D03*
X125000000Y-78900000D03*
X125800000Y-78900000D03*
X129000000Y-78900000D03*
X129800000Y-78900000D03*
X130600000Y-78900000D03*
X131400000Y-78900000D03*
X132200000Y-78900000D03*
X133000000Y-78900000D03*
X121800000Y-79700000D03*
X122600000Y-79700000D03*
X123400000Y-79700000D03*
X124200000Y-79700000D03*
X125000000Y-79700000D03*
X125800000Y-79700000D03*
X126600000Y-79700000D03*
X127400000Y-79700000D03*
X128200000Y-79700000D03*
X129000000Y-79700000D03*
X129800000Y-79700000D03*
X130600000Y-79700000D03*
X131400000Y-79700000D03*
X132200000Y-79700000D03*
X133000000Y-79700000D03*
X121800000Y-80500000D03*
X122600000Y-80500000D03*
X123400000Y-80500000D03*
X124200000Y-80500000D03*
X125000000Y-80500000D03*
X125800000Y-80500000D03*
X126600000Y-80500000D03*
X127400000Y-80500000D03*
X128200000Y-80500000D03*
X129000000Y-80500000D03*
X129800000Y-80500000D03*
X130600000Y-80500000D03*
X131400000Y-80500000D03*
X132200000Y-80500000D03*
X133000000Y-80500000D03*
X121800000Y-81300000D03*
X122600000Y-81300000D03*
X123400000Y-81300000D03*
X124200000Y-81300000D03*
X125000000Y-81300000D03*
X125800000Y-81300000D03*
X126600000Y-81300000D03*
X127400000Y-81300000D03*
X128200000Y-81300000D03*
X129000000Y-81300000D03*
X129800000Y-81300000D03*
X130600000Y-81300000D03*
X131400000Y-81300000D03*
X132200000Y-81300000D03*
X133000000Y-81300000D03*
X121800000Y-82100000D03*
X122600000Y-82100000D03*
X123400000Y-82100000D03*
X124200000Y-82100000D03*
X125000000Y-82100000D03*
X125800000Y-82100000D03*
X126600000Y-82100000D03*
X127400000Y-82100000D03*
X128200000Y-82100000D03*
X129000000Y-82100000D03*
X129800000Y-82100000D03*
X130600000Y-82100000D03*
X131400000Y-82100000D03*
X132200000Y-82100000D03*
X133000000Y-82100000D03*
X121800000Y-82900000D03*
X122600000Y-82900000D03*
X123400000Y-82900000D03*
X124200000Y-82900000D03*
X125000000Y-82900000D03*
X125800000Y-82900000D03*
X126600000Y-82900000D03*
X127400000Y-82900000D03*
X128200000Y-82900000D03*
X129000000Y-82900000D03*
X129800000Y-82900000D03*
X130600000Y-82900000D03*
X131400000Y-82900000D03*
X132200000Y-82900000D03*
X133000000Y-82900000D03*
X121800000Y-83700000D03*
X122600000Y-83700000D03*
X123400000Y-83700000D03*
X124200000Y-83700000D03*
X125000000Y-83700000D03*
X125800000Y-83700000D03*
X126600000Y-83700000D03*
X127400000Y-83700000D03*
X128200000Y-83700000D03*
X129000000Y-83700000D03*
X129800000Y-83700000D03*
X130600000Y-83700000D03*
X131400000Y-83700000D03*
X132200000Y-83700000D03*
X133000000Y-83700000D03*
%TD*%
D25*
%TO.C,Y1*%
X151708066Y-55691354D03*
X153908066Y-55691354D03*
X153908066Y-53991354D03*
X151708066Y-53991354D03*
%TD*%
D18*
%TO.C,C15*%
X135851200Y-87193800D03*
X133951200Y-87193800D03*
%TD*%
D26*
%TO.C,U4*%
X115200000Y-57700000D03*
X115200000Y-60000000D03*
D27*
X121500000Y-60000000D03*
D26*
X115200000Y-62300000D03*
%TD*%
D13*
%TO.C,C47*%
X142931200Y-85548800D03*
X142931200Y-83648800D03*
%TD*%
D28*
%TO.C,C39*%
X140913700Y-63773800D03*
X140913700Y-66723800D03*
%TD*%
D13*
%TO.C,C36*%
X134806200Y-92111300D03*
X134806200Y-90211300D03*
%TD*%
D29*
%TO.C,C3*%
X140588700Y-72023800D03*
X143538700Y-72023800D03*
%TD*%
D17*
%TO.C,R6*%
X146026200Y-91156300D03*
X146026200Y-89331300D03*
%TD*%
D14*
%TO.C,C29*%
X146663700Y-78273800D03*
X143713700Y-78273800D03*
%TD*%
D30*
%TO.C,R1*%
X116338700Y-69956300D03*
X116338700Y-71781300D03*
%TD*%
D13*
%TO.C,C28*%
X131368700Y-64298800D03*
X131368700Y-62398800D03*
%TD*%
D29*
%TO.C,C26*%
X138713700Y-75773800D03*
X141663700Y-75773800D03*
%TD*%
D31*
%TO.C,U3*%
X132200000Y-94000000D03*
X132200000Y-94500000D03*
X132200000Y-95000000D03*
X132200000Y-95500000D03*
X132200000Y-96000000D03*
X135000000Y-96000000D03*
X135000000Y-95500000D03*
X135000000Y-95000000D03*
X135000000Y-94500000D03*
X135000000Y-94000000D03*
%TD*%
D20*
%TO.C,R8*%
X142718700Y-95661300D03*
X144543700Y-95661300D03*
%TD*%
D29*
%TO.C,C38*%
X135588700Y-67961300D03*
X138538700Y-67961300D03*
%TD*%
%TO.C,C32*%
X143713700Y-75773800D03*
X146663700Y-75773800D03*
%TD*%
D15*
%TO.C,C9*%
X152388700Y-80943800D03*
X154288700Y-80943800D03*
%TD*%
D13*
%TO.C,C25*%
X118556200Y-85861300D03*
X118556200Y-83961300D03*
%TD*%
D30*
%TO.C,R2*%
X114151200Y-72456300D03*
X114151200Y-74281300D03*
%TD*%
D13*
%TO.C,C4*%
X136368700Y-81173800D03*
X136368700Y-79273800D03*
%TD*%
D15*
%TO.C,C17*%
X124263700Y-87193800D03*
X126163700Y-87193800D03*
%TD*%
D20*
%TO.C,R7*%
X142093700Y-90973800D03*
X143918700Y-90973800D03*
%TD*%
D15*
%TO.C,C45*%
X123638700Y-91256300D03*
X125538700Y-91256300D03*
%TD*%
D13*
%TO.C,C10*%
X154493700Y-77736300D03*
X154493700Y-75836300D03*
%TD*%
%TO.C,C48*%
X148243700Y-88986300D03*
X148243700Y-87086300D03*
%TD*%
%TO.C,C35*%
X136993700Y-94611300D03*
X136993700Y-92711300D03*
%TD*%
%TO.C,C41*%
X150743700Y-78048800D03*
X150743700Y-76148800D03*
%TD*%
D15*
%TO.C,C30*%
X143951200Y-93443800D03*
X145851200Y-93443800D03*
%TD*%
D14*
%TO.C,C34*%
X145413700Y-81398800D03*
X142463700Y-81398800D03*
%TD*%
D19*
%TO.C,R9*%
X108918700Y-62223800D03*
X107093700Y-62223800D03*
%TD*%
D15*
%TO.C,C51*%
X155826200Y-55318800D03*
X157726200Y-55318800D03*
%TD*%
D32*
%TO.C,IC1*%
X155488000Y-67512000D03*
X155488000Y-67012000D03*
X155488000Y-66512000D03*
X155488000Y-66012000D03*
X155488000Y-65512000D03*
X155488000Y-65012000D03*
X155488000Y-64512000D03*
X155488000Y-64012000D03*
X155488000Y-63512000D03*
X155488000Y-63012000D03*
X155488000Y-62512000D03*
X155488000Y-62012000D03*
X155488000Y-61512000D03*
X155488000Y-61012000D03*
X155488000Y-60512000D03*
X155488000Y-60012000D03*
D33*
X153500000Y-58024000D03*
X153000000Y-58024000D03*
X152500000Y-58024000D03*
X152000000Y-58024000D03*
X151500000Y-58024000D03*
X151000000Y-58024000D03*
X150500000Y-58024000D03*
X150000000Y-58024000D03*
X149500000Y-58024000D03*
X149000000Y-58024000D03*
X148500000Y-58024000D03*
X148000000Y-58024000D03*
X147500000Y-58024000D03*
X147000000Y-58024000D03*
X146500000Y-58024000D03*
X146000000Y-58024000D03*
D32*
X144012000Y-60012000D03*
X144012000Y-60512000D03*
X144012000Y-61012000D03*
X144012000Y-61512000D03*
X144012000Y-62012000D03*
X144012000Y-62512000D03*
X144012000Y-63012000D03*
X144012000Y-63512000D03*
X144012000Y-64012000D03*
X144012000Y-64512000D03*
X144012000Y-65012000D03*
X144012000Y-65512000D03*
X144012000Y-66012000D03*
X144012000Y-66512000D03*
X144012000Y-67012000D03*
X144012000Y-67512000D03*
D33*
X146000000Y-69500000D03*
X146500000Y-69500000D03*
X147000000Y-69500000D03*
X147500000Y-69500000D03*
X148000000Y-69500000D03*
X148500000Y-69500000D03*
X149000000Y-69500000D03*
X149500000Y-69500000D03*
X150000000Y-69500000D03*
X150500000Y-69500000D03*
X151000000Y-69500000D03*
X151500000Y-69500000D03*
X152000000Y-69500000D03*
X152500000Y-69500000D03*
X153000000Y-69500000D03*
X153500000Y-69500000D03*
D34*
X149750000Y-63762000D03*
%TD*%
D35*
%TO.C,FB1*%
X129363700Y-69673800D03*
X129363700Y-67548800D03*
%TD*%
D29*
%TO.C,C2*%
X137463700Y-83586300D03*
X140413700Y-83586300D03*
%TD*%
D23*
%TO.C,C12*%
X133556200Y-65523800D03*
X133556200Y-67423800D03*
%TD*%
D13*
%TO.C,C23*%
X128243700Y-88986300D03*
X128243700Y-87086300D03*
%TD*%
D18*
%TO.C,C22*%
X153976200Y-73443800D03*
X152076200Y-73443800D03*
%TD*%
D15*
%TO.C,C6*%
X136763700Y-70943800D03*
X138663700Y-70943800D03*
%TD*%
D13*
%TO.C,C46*%
X121681200Y-95236300D03*
X121681200Y-93336300D03*
%TD*%
%TO.C,C11*%
X118556200Y-78361300D03*
X118556200Y-76461300D03*
%TD*%
D20*
%TO.C,R10*%
X137718700Y-55036300D03*
X139543700Y-55036300D03*
%TD*%
D15*
%TO.C,C20*%
X137701200Y-88131300D03*
X139601200Y-88131300D03*
%TD*%
D36*
%TO.C,U2*%
X117225000Y-94000000D03*
X117225000Y-94950000D03*
X117225000Y-95900000D03*
X119500000Y-95900000D03*
X119500000Y-94000000D03*
%TD*%
D13*
%TO.C,C31*%
X132618700Y-91486300D03*
X132618700Y-89586300D03*
%TD*%
D23*
%TO.C,C43*%
X135431200Y-60211300D03*
X135431200Y-62111300D03*
%TD*%
%TO.C,C7*%
X127306200Y-67398800D03*
X127306200Y-69298800D03*
%TD*%
D13*
%TO.C,C52*%
X149493700Y-55861300D03*
X149493700Y-53961300D03*
%TD*%
D15*
%TO.C,C44*%
X126138700Y-60631300D03*
X128038700Y-60631300D03*
%TD*%
%TO.C,C49*%
X148013700Y-85006300D03*
X149913700Y-85006300D03*
%TD*%
D13*
%TO.C,C53*%
X167931200Y-62736300D03*
X167931200Y-60836300D03*
%TD*%
D15*
%TO.C,C19*%
X137701200Y-85943800D03*
X139601200Y-85943800D03*
%TD*%
M02*
